<?xml version="1.0" encoding="UTF-8" standalone="no"?>
<!-- Created with Inkscape (http://www.inkscape.org/) -->
<svg
   xmlns:dc="http://purl.org/dc/elements/1.1/"
   xmlns:cc="http://creativecommons.org/ns#"
   xmlns:rdf="http://www.w3.org/1999/02/22-rdf-syntax-ns#"
   xmlns:svg="http://www.w3.org/2000/svg"
   xmlns="http://www.w3.org/2000/svg"
   xmlns:sodipodi="http://sodipodi.sourceforge.net/DTD/sodipodi-0.dtd"
   xmlns:inkscape="http://www.inkscape.org/namespaces/inkscape"
   width="744.09448819"
   height="1052.3622047"
   id="svg2"
   sodipodi:version="0.32"
   inkscape:version="0.46"
   sodipodi:docname="concept.svg"
   inkscape:output_extension="org.inkscape.output.svg.inkscape">
  <defs
     id="defs4">
    <inkscape:perspective
       sodipodi:type="inkscape:persp3d"
       inkscape:vp_x="0 : 526.18109 : 1"
       inkscape:vp_y="0 : 1000 : 0"
       inkscape:vp_z="744.09448 : 526.18109 : 1"
       inkscape:persp3d-origin="372.04724 : 350.78739 : 1"
       id="perspective10" />
  </defs>
  <sodipodi:namedview
     id="base"
     pagecolor="#ffffff"
     bordercolor="#666666"
     borderopacity="1.0"
     gridtolerance="10000"
     guidetolerance="10"
     objecttolerance="10"
     inkscape:pageopacity="0.0"
     inkscape:pageshadow="2"
     inkscape:zoom="1.979899"
     inkscape:cx="392.59051"
     inkscape:cy="622.4194"
     inkscape:document-units="px"
     inkscape:current-layer="layer1"
     showgrid="false"
     showguides="true"
     inkscape:guide-bbox="true"
     inkscape:window-width="1022"
     inkscape:window-height="736"
     inkscape:window-x="0"
     inkscape:window-y="0" />
  <metadata
     id="metadata7">
    <rdf:RDF>
      <cc:Work
         rdf:about="">
        <dc:format>image/svg+xml</dc:format>
        <dc:type
           rdf:resource="http://purl.org/dc/dcmitype/StillImage" />
      </cc:Work>
    </rdf:RDF>
  </metadata>
  <g
     inkscape:label="Layer 1"
     inkscape:groupmode="layer"
     id="layer1">
    <text
       xml:space="preserve"
       style="font-size:12.16764069px;font-style:normal;font-weight:normal;fill:#000000;fill-opacity:1;stroke:none;stroke-width:1px;stroke-linecap:butt;stroke-linejoin:miter;stroke-opacity:1;font-family:P22 Typewriter"
       x="261.31982"
       y="421.40097"
       id="text2383"><tspan
         sodipodi:role="line"
         id="tspan2385"
         x="261.31982"
         y="421.40097">feedr</tspan></text>
    <text
       xml:space="preserve"
       style="font-size:12.16764069px;font-style:normal;font-weight:normal;fill:#000000;fill-opacity:1;stroke:none;stroke-width:1px;stroke-linecap:butt;stroke-linejoin:miter;stroke-opacity:1;font-family:P22 Typewriter"
       x="242.53242"
       y="452.83664"
       id="text2387"><tspan
         sodipodi:role="line"
         id="tspan2389"
         x="242.53242"
         y="452.83664">bildr</tspan></text>
    <text
       xml:space="preserve"
       style="font-size:12.16764069px;font-style:normal;font-weight:normal;fill:#000000;fill-opacity:1;stroke:none;stroke-width:1px;stroke-linecap:butt;stroke-linejoin:miter;stroke-opacity:1;font-family:P22 Typewriter"
       x="198.32756"
       y="420.24869"
       id="text2391"><tspan
         sodipodi:role="line"
         id="tspan2393"
         x="198.32756"
         y="420.24869">gaskr</tspan></text>
    <text
       xml:space="preserve"
       style="font-size:12px;font-style:normal;font-weight:normal;fill:#000000;fill-opacity:1;stroke:none;stroke-width:1px;stroke-linecap:butt;stroke-linejoin:miter;stroke-opacity:1;font-family:P22 Typewriter"
       x="446.99249"
       y="421.52188"
       id="text2395"><tspan
         sodipodi:role="line"
         id="tspan2397"
         x="446.99249"
         y="421.52188">munchr</tspan></text>
    <text
       xml:space="preserve"
       style="font-size:12px;font-style:normal;font-weight:normal;fill:#000000;fill-opacity:1;stroke:none;stroke-width:1px;stroke-linecap:butt;stroke-linejoin:miter;stroke-opacity:1;font-family:P22 Typewriter"
       x="516.18799"
       y="421.01685"
       id="text2399"><tspan
         sodipodi:role="line"
         id="tspan2401"
         x="516.18799"
         y="421.01685">nbox</tspan></text>
    <g
       id="g2415"
       transform="matrix(1.9171192,0,0,0.7604775,-176.7609,159.04469)">
      <path
         d="M 240.50105,380.5398 C 241.85102,380.53336 243.19031,380.51831 244.52959,380.70044 C 245.79461,380.9144 247.07593,380.98011 248.35599,381.02278 C 249.75445,381.06223 251.11262,381.3348 252.51453,381.27416 C 253.59721,381.19017 254.68006,381.11653 255.76538,381.07857 C 256.82188,381.04717 257.87893,381.04928 258.93576,381.04882 C 260.01479,381.0578 261.07938,381.10065 262.1403,380.88894 C 262.72984,380.75547 263.3293,380.68428 263.92999,380.6263 L 262.3648,381.78822 C 261.76719,381.85372 261.17218,381.93622 260.58416,382.06401 C 259.51819,382.24929 258.44388,382.18455 257.36551,382.19002 C 256.30866,382.19262 255.25156,382.19502 254.19513,382.22823 C 253.11194,382.26969 252.0315,382.34951 250.94989,382.41919 C 249.55014,382.45513 248.18634,382.17368 246.78828,382.15366 C 245.50269,382.10898 244.21692,382.03401 242.94666,381.81882 C 241.60695,381.64452 240.26446,381.67061 238.91541,381.69183 L 240.50105,380.5398 z"
         id="path2403"
         style="opacity:0.51000001;fill:#d30303;fill-opacity:1;stroke:#000000;stroke-width:1;stroke-linecap:round;stroke-linejoin:round;stroke-miterlimit:4.4000001;stroke-dasharray:none;stroke-opacity:1" />
      <path
         d="M 257.3841,375.1965 C 258.35875,375.70477 257.7688,375.60559 258.72823,376.13944 C 259.80032,376.62602 259.77763,376.633 260.86573,377.08016 C 261.82129,377.68381 261.23625,377.58769 262.28257,377.95816 C 263.12156,378.3295 264.04126,378.35906 264.92228,378.55388 C 266.07493,378.78618 267.15998,379.16061 268.13125,379.82606 C 269.03355,380.56405 268.76245,380.89397 268.02431,381.58234 C 267.25821,382.4944 266.22891,383.05948 265.23424,383.67645 C 263.63569,384.90431 265.00558,383.91636 263.26226,384.92461 C 262.02666,385.49342 263.11165,385.01893 261.81567,385.42781 C 260.27407,386.03992 260.78031,386.06025 259.17039,386.41685 L 260.69553,385.25777 C 262.3078,384.90932 261.79229,384.85517 263.33558,384.25041 C 264.62824,383.83654 263.54463,384.3011 264.76669,383.70721 C 264.41115,383.91504 264.06648,384.1427 263.70007,384.33069 C 263.48934,384.43881 264.09873,384.07482 264.29842,383.94747 C 265.06435,383.45901 264.46478,383.82437 265.20477,383.29851 C 266.18705,382.67867 265.47408,383.24413 266.21978,382.32012 C 266.87266,381.73799 267.37112,381.58128 266.49563,380.8721 C 265.53223,380.23296 264.45541,379.88743 263.32302,379.66649 C 262.4302,379.49315 263.19341,379.75173 262.34846,379.38226 C 261.29462,379.02486 261.34081,379.15002 260.37288,378.57405 C 259.27521,378.13033 258.93018,378.11399 257.85583,377.61495 C 256.89547,377.06243 256.71028,376.75905 255.72766,376.24419 L 257.3841,375.1965 z"
         id="path2413"
         style="opacity:0.51000001;fill:#d30303;fill-opacity:1;stroke:#000000;stroke-width:1;stroke-linecap:round;stroke-linejoin:round;stroke-miterlimit:4.4000001;stroke-dasharray:none;stroke-opacity:1"
         sodipodi:nodetypes="ccccccccccccccsscccsccccc" />
    </g>
    <g
       id="g2419"
       transform="matrix(0.7604775,0,0,0.7604775,54.674452,127.72996)">
      <path
         style="opacity:0.51000001;fill:#d30303;fill-opacity:1;stroke:#000000;stroke-width:1;stroke-linecap:round;stroke-linejoin:round;stroke-miterlimit:4.4000001;stroke-dasharray:none;stroke-opacity:1"
         id="path2421"
         d="M 240.50105,380.5398 C 241.85102,380.53336 243.19031,380.51831 244.52959,380.70044 C 245.79461,380.9144 247.07593,380.98011 248.35599,381.02278 C 249.75445,381.06223 251.11262,381.3348 252.51453,381.27416 C 253.59721,381.19017 254.68006,381.11653 255.76538,381.07857 C 256.82188,381.04717 257.87893,381.04928 258.93576,381.04882 C 260.01479,381.0578 261.07938,381.10065 262.1403,380.88894 C 262.72984,380.75547 263.3293,380.68428 263.92999,380.6263 L 262.3648,381.78822 C 261.76719,381.85372 261.17218,381.93622 260.58416,382.06401 C 259.51819,382.24929 258.44388,382.18455 257.36551,382.19002 C 256.30866,382.19262 255.25156,382.19502 254.19513,382.22823 C 253.11194,382.26969 252.0315,382.34951 250.94989,382.41919 C 249.55014,382.45513 248.18634,382.17368 246.78828,382.15366 C 245.50269,382.10898 244.21692,382.03401 242.94666,381.81882 C 241.60695,381.64452 240.26446,381.67061 238.91541,381.69183 L 240.50105,380.5398 z" />
      <path
         style="opacity:0.51000001;fill:#d30303;fill-opacity:1;stroke:#000000;stroke-width:1;stroke-linecap:round;stroke-linejoin:round;stroke-miterlimit:4.4000001;stroke-dasharray:none;stroke-opacity:1"
         id="path2423"
         d="M 253.10294,373.70215 C 254.07759,374.21042 254.96958,374.85841 255.92901,375.39226 C 257.0011,375.87884 258.0981,376.30092 259.1862,376.74808 C 260.14176,377.35173 261.23625,377.58769 262.28257,377.95816 C 263.12156,378.3295 264.04126,378.35906 264.92228,378.55388 C 266.07493,378.78618 267.15998,379.16061 268.13125,379.82606 C 269.03355,380.56405 268.76245,380.89397 268.02431,381.58234 C 267.25821,382.4944 266.22891,383.05948 265.23424,383.67645 C 263.63569,384.90431 261.90997,385.90883 260.16665,386.91708 C 258.93105,387.48589 257.64494,387.92462 256.34896,388.3335 C 254.80736,388.94561 253.17302,389.21499 251.5631,389.57159 L 253.08824,388.41251 C 254.70051,388.06406 256.32558,387.76086 257.86887,387.1561 C 259.16153,386.74223 260.44902,386.29357 261.67108,385.69968 C 261.31554,385.90751 260.97087,386.13517 260.60446,386.32316 C 260.39373,386.43128 261.00312,386.06729 261.20281,385.93994 C 261.96874,385.45148 262.68645,384.90362 263.42644,384.37776 C 264.40872,383.75792 265.47408,383.24413 266.21978,382.32012 C 266.87266,381.73799 267.37112,381.58128 266.49563,380.8721 C 265.53223,380.23296 264.45541,379.88743 263.32302,379.66649 C 262.4302,379.49315 261.51388,379.41965 260.66893,379.05018 C 259.61509,378.69278 258.54159,378.40284 257.57366,377.82687 C 256.47599,377.38315 255.37353,376.95172 254.29918,376.45268 C 253.33882,375.90016 252.42912,375.2647 251.4465,374.74984 L 253.10294,373.70215 z" />
    </g>
    <g
       transform="matrix(0.7604775,0,0,0.7604775,308.72782,128.78625)"
       id="g2425">
      <path
         d="M 240.50105,380.5398 C 241.85102,380.53336 243.19031,380.51831 244.52959,380.70044 C 245.79461,380.9144 247.07593,380.98011 248.35599,381.02278 C 249.75445,381.06223 251.11262,381.3348 252.51453,381.27416 C 253.59721,381.19017 254.68006,381.11653 255.76538,381.07857 C 256.82188,381.04717 257.87893,381.04928 258.93576,381.04882 C 260.01479,381.0578 261.07938,381.10065 262.1403,380.88894 C 262.72984,380.75547 263.3293,380.68428 263.92999,380.6263 L 262.3648,381.78822 C 261.76719,381.85372 261.17218,381.93622 260.58416,382.06401 C 259.51819,382.24929 258.44388,382.18455 257.36551,382.19002 C 256.30866,382.19262 255.25156,382.19502 254.19513,382.22823 C 253.11194,382.26969 252.0315,382.34951 250.94989,382.41919 C 249.55014,382.45513 248.18634,382.17368 246.78828,382.15366 C 245.50269,382.10898 244.21692,382.03401 242.94666,381.81882 C 241.60695,381.64452 240.26446,381.67061 238.91541,381.69183 L 240.50105,380.5398 z"
         id="path2427"
         style="opacity:0.51000001;fill:#d30303;fill-opacity:1;stroke:#000000;stroke-width:1;stroke-linecap:round;stroke-linejoin:round;stroke-miterlimit:4.4000001;stroke-dasharray:none;stroke-opacity:1" />
      <path
         d="M 253.10294,373.70215 C 254.07759,374.21042 254.96958,374.85841 255.92901,375.39226 C 257.0011,375.87884 258.0981,376.30092 259.1862,376.74808 C 260.14176,377.35173 261.23625,377.58769 262.28257,377.95816 C 263.12156,378.3295 264.04126,378.35906 264.92228,378.55388 C 266.07493,378.78618 267.15998,379.16061 268.13125,379.82606 C 269.03355,380.56405 268.76245,380.89397 268.02431,381.58234 C 267.25821,382.4944 266.22891,383.05948 265.23424,383.67645 C 263.63569,384.90431 261.90997,385.90883 260.16665,386.91708 C 258.93105,387.48589 257.64494,387.92462 256.34896,388.3335 C 254.80736,388.94561 253.17302,389.21499 251.5631,389.57159 L 253.08824,388.41251 C 254.70051,388.06406 256.32558,387.76086 257.86887,387.1561 C 259.16153,386.74223 260.44902,386.29357 261.67108,385.69968 C 261.31554,385.90751 260.97087,386.13517 260.60446,386.32316 C 260.39373,386.43128 261.00312,386.06729 261.20281,385.93994 C 261.96874,385.45148 262.68645,384.90362 263.42644,384.37776 C 264.40872,383.75792 265.47408,383.24413 266.21978,382.32012 C 266.87266,381.73799 267.37112,381.58128 266.49563,380.8721 C 265.53223,380.23296 264.45541,379.88743 263.32302,379.66649 C 262.4302,379.49315 261.51388,379.41965 260.66893,379.05018 C 259.61509,378.69278 258.54159,378.40284 257.57366,377.82687 C 256.47599,377.38315 255.37353,376.95172 254.29918,376.45268 C 253.33882,375.90016 252.42912,375.2647 251.4465,374.74984 L 253.10294,373.70215 z"
         id="path2429"
         style="opacity:0.51000001;fill:#d30303;fill-opacity:1;stroke:#000000;stroke-width:1;stroke-linecap:round;stroke-linejoin:round;stroke-miterlimit:4.4000001;stroke-dasharray:none;stroke-opacity:1" />
    </g>
    <path
       style="opacity:0.51000001;fill:#d3bd03;fill-opacity:1;stroke:#000000;stroke-width:1;stroke-linecap:round;stroke-linejoin:round;stroke-miterlimit:4.4000001;stroke-opacity:1"
       d="M 419.21331,460.91786 C 416.28695,464.57581 407.85782,460.66688 404.08443,463.44278 C 400.31105,466.21869 397.95528,478.06157 393.59201,479.76626 C 389.22874,481.47096 375.23911,476.79413 370.58331,477.31144 C 365.92751,477.82875 366.61016,483.98413 361.97911,483.27881 C 357.34806,482.57348 363.19221,475.78661 358.90151,473.90671 C 354.61081,472.02681 336.50321,473.44067 332.84527,470.51431 C 329.18733,467.58796 340.63604,448.5551 337.89649,452.35497 C 331.51251,461.20984 314.09186,454.89022 313.99687,444.89301 C 313.95236,440.20877 328.08603,427.39168 323.52276,428.4503 C 303.73661,433.04041 311.86116,417.79745 310.48433,413.28012 C 308.90502,408.09844 319.19044,403.26251 324.90718,400.10098 C 329.33942,397.64983 322.12196,387.80422 323.24882,384.14627 C 324.62795,379.66943 334.09923,378.33634 337.87262,375.56043 C 341.64601,372.78453 344.50685,367.00257 348.87012,365.29787 C 353.23339,363.59318 360.15195,366.75478 364.80775,366.23746 C 369.46355,365.72015 375.85197,361.08 380.48302,361.78533 C 385.11407,362.49065 383.81561,372.30799 388.10631,374.18789 C 392.39701,376.06778 405.95892,371.62347 409.61686,374.54982 C 413.2748,377.47618 406.84049,383.885 409.6164,387.65839 C 412.39231,391.43178 426.76057,395.80785 428.46526,400.17112 C 430.16996,404.53439 423.9779,412.4631 424.49521,417.1189 C 425.01252,421.7747 432.68313,427.15297 431.97781,431.78402 C 431.27248,436.41507 424.99067,439.6623 423.11078,443.95299 C 421.23088,448.24369 422.13966,457.25992 419.21331,460.91786 z"
       id="path2437"
       sodipodi:nodetypes="csssssssssssssssssssssssc" />
    <text
       xml:space="preserve"
       style="font-size:20.14330864px;font-style:normal;font-weight:normal;fill:#000000;fill-opacity:1;stroke:none;stroke-width:1px;stroke-linecap:butt;stroke-linejoin:miter;stroke-opacity:1;font-family:P22 Typewriter"
       x="331.79782"
       y="423.42621"
       id="text2433"><tspan
         sodipodi:role="line"
         x="331.79782"
         y="423.42621"
         id="tspan3240">network</tspan><tspan
         sodipodi:role="line"
         x="331.79782"
         y="448.60535"
         id="tspan3244" /></text>
    <g
       transform="matrix(0.7604775,0,0,0.7604775,121.34452,127.72996)"
       id="g3210">
      <path
         d="M 240.50105,380.5398 C 241.85102,380.53336 243.19031,380.51831 244.52959,380.70044 C 245.79461,380.9144 247.07593,380.98011 248.35599,381.02278 C 249.75445,381.06223 251.11262,381.3348 252.51453,381.27416 C 253.59721,381.19017 254.68006,381.11653 255.76538,381.07857 C 256.82188,381.04717 257.87893,381.04928 258.93576,381.04882 C 260.01479,381.0578 261.07938,381.10065 262.1403,380.88894 C 262.72984,380.75547 263.3293,380.68428 263.92999,380.6263 L 262.3648,381.78822 C 261.76719,381.85372 261.17218,381.93622 260.58416,382.06401 C 259.51819,382.24929 258.44388,382.18455 257.36551,382.19002 C 256.30866,382.19262 255.25156,382.19502 254.19513,382.22823 C 253.11194,382.26969 252.0315,382.34951 250.94989,382.41919 C 249.55014,382.45513 248.18634,382.17368 246.78828,382.15366 C 245.50269,382.10898 244.21692,382.03401 242.94666,381.81882 C 241.60695,381.64452 240.26446,381.67061 238.91541,381.69183 L 240.50105,380.5398 z"
         id="path3212"
         style="opacity:0.51000001;fill:#d30303;fill-opacity:1;stroke:#000000;stroke-width:1;stroke-linecap:round;stroke-linejoin:round;stroke-miterlimit:4.4000001;stroke-dasharray:none;stroke-opacity:1" />
      <path
         d="M 253.10294,373.70215 C 254.07759,374.21042 254.96958,374.85841 255.92901,375.39226 C 257.0011,375.87884 258.0981,376.30092 259.1862,376.74808 C 260.14176,377.35173 261.23625,377.58769 262.28257,377.95816 C 263.12156,378.3295 264.04126,378.35906 264.92228,378.55388 C 266.07493,378.78618 267.15998,379.16061 268.13125,379.82606 C 269.03355,380.56405 268.76245,380.89397 268.02431,381.58234 C 267.25821,382.4944 266.22891,383.05948 265.23424,383.67645 C 263.63569,384.90431 261.90997,385.90883 260.16665,386.91708 C 258.93105,387.48589 257.64494,387.92462 256.34896,388.3335 C 254.80736,388.94561 253.17302,389.21499 251.5631,389.57159 L 253.08824,388.41251 C 254.70051,388.06406 256.32558,387.76086 257.86887,387.1561 C 259.16153,386.74223 260.44902,386.29357 261.67108,385.69968 C 261.31554,385.90751 260.97087,386.13517 260.60446,386.32316 C 260.39373,386.43128 261.00312,386.06729 261.20281,385.93994 C 261.96874,385.45148 262.68645,384.90362 263.42644,384.37776 C 264.40872,383.75792 265.47408,383.24413 266.21978,382.32012 C 266.87266,381.73799 267.37112,381.58128 266.49563,380.8721 C 265.53223,380.23296 264.45541,379.88743 263.32302,379.66649 C 262.4302,379.49315 261.51388,379.41965 260.66893,379.05018 C 259.61509,378.69278 258.54159,378.40284 257.57366,377.82687 C 256.47599,377.38315 255.37353,376.95172 254.29918,376.45268 C 253.33882,375.90016 252.42912,375.2647 251.4465,374.74984 L 253.10294,373.70215 z"
         id="path3214"
         style="opacity:0.51000001;fill:#d30303;fill-opacity:1;stroke:#000000;stroke-width:1;stroke-linecap:round;stroke-linejoin:round;stroke-miterlimit:4.4000001;stroke-dasharray:none;stroke-opacity:1" />
    </g>
    <g
       id="g3216"
       transform="matrix(0.7604775,0,0,0.7604775,236.50191,128.78625)">
      <path
         style="opacity:0.51000001;fill:#d30303;fill-opacity:1;stroke:#000000;stroke-width:1;stroke-linecap:round;stroke-linejoin:round;stroke-miterlimit:4.4000001;stroke-dasharray:none;stroke-opacity:1"
         id="path3218"
         d="M 240.50105,380.5398 C 241.85102,380.53336 243.19031,380.51831 244.52959,380.70044 C 245.79461,380.9144 247.07593,380.98011 248.35599,381.02278 C 249.75445,381.06223 251.11262,381.3348 252.51453,381.27416 C 253.59721,381.19017 254.68006,381.11653 255.76538,381.07857 C 256.82188,381.04717 257.87893,381.04928 258.93576,381.04882 C 260.01479,381.0578 261.07938,381.10065 262.1403,380.88894 C 262.72984,380.75547 263.3293,380.68428 263.92999,380.6263 L 262.3648,381.78822 C 261.76719,381.85372 261.17218,381.93622 260.58416,382.06401 C 259.51819,382.24929 258.44388,382.18455 257.36551,382.19002 C 256.30866,382.19262 255.25156,382.19502 254.19513,382.22823 C 253.11194,382.26969 252.0315,382.34951 250.94989,382.41919 C 249.55014,382.45513 248.18634,382.17368 246.78828,382.15366 C 245.50269,382.10898 244.21692,382.03401 242.94666,381.81882 C 241.60695,381.64452 240.26446,381.67061 238.91541,381.69183 L 240.50105,380.5398 z" />
      <path
         style="opacity:0.51000001;fill:#d30303;fill-opacity:1;stroke:#000000;stroke-width:1;stroke-linecap:round;stroke-linejoin:round;stroke-miterlimit:4.4000001;stroke-dasharray:none;stroke-opacity:1"
         id="path3220"
         d="M 253.10294,373.70215 C 254.07759,374.21042 254.96958,374.85841 255.92901,375.39226 C 257.0011,375.87884 258.0981,376.30092 259.1862,376.74808 C 260.14176,377.35173 261.23625,377.58769 262.28257,377.95816 C 263.12156,378.3295 264.04126,378.35906 264.92228,378.55388 C 266.07493,378.78618 267.15998,379.16061 268.13125,379.82606 C 269.03355,380.56405 268.76245,380.89397 268.02431,381.58234 C 267.25821,382.4944 266.22891,383.05948 265.23424,383.67645 C 263.63569,384.90431 261.90997,385.90883 260.16665,386.91708 C 258.93105,387.48589 257.64494,387.92462 256.34896,388.3335 C 254.80736,388.94561 253.17302,389.21499 251.5631,389.57159 L 253.08824,388.41251 C 254.70051,388.06406 256.32558,387.76086 257.86887,387.1561 C 259.16153,386.74223 260.44902,386.29357 261.67108,385.69968 C 261.31554,385.90751 260.97087,386.13517 260.60446,386.32316 C 260.39373,386.43128 261.00312,386.06729 261.20281,385.93994 C 261.96874,385.45148 262.68645,384.90362 263.42644,384.37776 C 264.40872,383.75792 265.47408,383.24413 266.21978,382.32012 C 266.87266,381.73799 267.37112,381.58128 266.49563,380.8721 C 265.53223,380.23296 264.45541,379.88743 263.32302,379.66649 C 262.4302,379.49315 261.51388,379.41965 260.66893,379.05018 C 259.61509,378.69278 258.54159,378.40284 257.57366,377.82687 C 256.47599,377.38315 255.37353,376.95172 254.29918,376.45268 C 253.33882,375.90016 252.42912,375.2647 251.4465,374.74984 L 253.10294,373.70215 z" />
    </g>
    <path
       sodipodi:type="arc"
       style="opacity:0.51000000999999995;fill:#ffffff;fill-opacity:0;stroke:#000000;stroke-width:2.5;stroke-linecap:round;stroke-linejoin:round;stroke-miterlimit:4.4000001;stroke-dasharray:none;stroke-opacity:1"
       id="path3224"
       sodipodi:cx="282.59018"
       sodipodi:cy="418.99655"
       sodipodi:rx="7.8286824"
       sodipodi:ry="36.870567"
       d="M 290.41886,418.99655 A 7.8286824,36.870567 0 0 1 290.41886,418.99778"
       sodipodi:open="true"
       sodipodi:start="0"
       sodipodi:end="3.3227081e-05" />
    <path
       sodipodi:type="arc"
       style="opacity:1;fill:#ffffff;fill-opacity:0;stroke:#1d2be2;stroke-width:0.29999999999999999;stroke-linecap:round;stroke-linejoin:round;stroke-miterlimit:4.40000009999999975;stroke-dasharray:none;stroke-opacity:1"
       id="path3228"
       sodipodi:cx="373.75644"
       sodipodi:cy="431.11838"
       sodipodi:rx="120.71323"
       sodipodi:ry="73.741135"
       d="M 494.46967,431.11838 A 120.71323,73.741135 0 1 1 253.04321,431.11838 A 120.71323,73.741135 0 1 1 494.46967,431.11838 z" />
    <path
       sodipodi:type="arc"
       style="opacity:1;fill:#ffffff;fill-opacity:0;stroke:#f67e09;stroke-width:0.4;stroke-linecap:round;stroke-linejoin:round;stroke-miterlimit:4.4000001;stroke-dasharray:none;stroke-opacity:1"
       id="path3230"
       sodipodi:cx="374.00897"
       sodipodi:cy="436.67419"
       sodipodi:rx="186.62569"
       sodipodi:ry="88.388351"
       d="M 560.63466,436.67419 A 186.62569,88.388351 0 1 1 187.38329,436.67419 A 186.62569,88.388351 0 1 1 560.63466,436.67419 z" />
    <text
       xml:space="preserve"
       style="font-size:16px;font-style:normal;font-weight:normal;fill:#000000;fill-opacity:1;stroke:none;stroke-width:1px;stroke-linecap:butt;stroke-linejoin:miter;stroke-opacity:1;font-family:P22 Typewriter"
       x="358.09906"
       y="499.30365"
       id="text3232"><tspan
         sodipodi:role="line"
         id="tspan3234"
         x="358.09906"
         y="499.30365">com</tspan></text>
    <text
       xml:space="preserve"
       style="font-size:16px;font-style:normal;font-weight:normal;fill:#000000;fill-opacity:1;stroke:none;stroke-width:1px;stroke-linecap:butt;stroke-linejoin:miter;stroke-opacity:1;font-family:P22 Typewriter"
       x="359.10922"
       y="519.00165"
       id="text3236"><tspan
         sodipodi:role="line"
         id="tspan3238"
         x="359.10922"
         y="519.00165">gui</tspan></text>
    <text
       xml:space="preserve"
       style="font-size:16px;font-style:normal;font-weight:normal;fill:#000000;fill-opacity:1;stroke:none;stroke-width:1px;stroke-linecap:butt;stroke-linejoin:miter;stroke-opacity:1;font-family:P22 Typewriter"
       x="336.88586"
       y="432.63358"
       id="text3246"><tspan
         sodipodi:role="line"
         id="tspan3248"
         x="336.88586"
         y="432.63358"
         style="font-size:8px">(pun intended)</tspan></text>
    <g
       transform="matrix(-0.8382407,-0.643166,0.643166,-0.8382407,197.69306,916.96911)"
       id="g3250">
      <path
         d="M 240.50105,380.5398 C 241.85102,380.53336 243.19031,380.51831 244.52959,380.70044 C 245.79461,380.9144 247.07593,380.98011 248.35599,381.02278 C 249.75445,381.06223 251.11262,381.3348 252.51453,381.27416 C 253.59721,381.19017 254.68006,381.11653 255.76538,381.07857 C 256.82188,381.04717 257.87893,381.04928 258.93576,381.04882 C 260.01479,381.0578 261.07938,381.10065 262.1403,380.88894 C 262.72984,380.75547 263.3293,380.68428 263.92999,380.6263 L 262.3648,381.78822 C 261.76719,381.85372 261.17218,381.93622 260.58416,382.06401 C 259.51819,382.24929 258.44388,382.18455 257.36551,382.19002 C 256.30866,382.19262 255.25156,382.19502 254.19513,382.22823 C 253.11194,382.26969 252.0315,382.34951 250.94989,382.41919 C 249.55014,382.45513 248.18634,382.17368 246.78828,382.15366 C 245.50269,382.10898 244.21692,382.03401 242.94666,381.81882 C 241.60695,381.64452 240.26446,381.67061 238.91541,381.69183 L 240.50105,380.5398 z"
         id="path3252"
         style="opacity:0.51000001;fill:#d30303;fill-opacity:1;stroke:#000000;stroke-width:1;stroke-linecap:round;stroke-linejoin:round;stroke-miterlimit:4.4000001;stroke-dasharray:none;stroke-opacity:1" />
      <path
         d="M 253.10294,373.70215 C 254.07759,374.21042 254.96958,374.85841 255.92901,375.39226 C 257.0011,375.87884 258.0981,376.30092 259.1862,376.74808 C 260.14176,377.35173 261.23625,377.58769 262.28257,377.95816 C 263.12156,378.3295 264.04126,378.35906 264.92228,378.55388 C 266.07493,378.78618 267.15998,379.16061 268.13125,379.82606 C 269.03355,380.56405 268.76245,380.89397 268.02431,381.58234 C 267.25821,382.4944 266.22891,383.05948 265.23424,383.67645 C 263.63569,384.90431 261.90997,385.90883 260.16665,386.91708 C 258.93105,387.48589 257.64494,387.92462 256.34896,388.3335 C 254.80736,388.94561 253.17302,389.21499 251.5631,389.57159 L 253.08824,388.41251 C 254.70051,388.06406 256.32558,387.76086 257.86887,387.1561 C 259.16153,386.74223 260.44902,386.29357 261.67108,385.69968 C 261.31554,385.90751 260.97087,386.13517 260.60446,386.32316 C 260.39373,386.43128 261.00312,386.06729 261.20281,385.93994 C 261.96874,385.45148 262.68645,384.90362 263.42644,384.37776 C 264.40872,383.75792 265.47408,383.24413 266.21978,382.32012 C 266.87266,381.73799 267.37112,381.58128 266.49563,380.8721 C 265.53223,380.23296 264.45541,379.88743 263.32302,379.66649 C 262.4302,379.49315 261.51388,379.41965 260.66893,379.05018 C 259.61509,378.69278 258.54159,378.40284 257.57366,377.82687 C 256.47599,377.38315 255.37353,376.95172 254.29918,376.45268 C 253.33882,375.90016 252.42912,375.2647 251.4465,374.74984 L 253.10294,373.70215 z"
         id="path3254"
         style="opacity:0.51000001;fill:#d30303;fill-opacity:1;stroke:#000000;stroke-width:1;stroke-linecap:round;stroke-linejoin:round;stroke-miterlimit:4.4000001;stroke-dasharray:none;stroke-opacity:1" />
    </g>
    <text
       xml:space="preserve"
       style="font-size:4.9445467px;font-style:normal;font-weight:normal;fill:#000000;fill-opacity:1;stroke:none;stroke-width:1px;stroke-linecap:butt;stroke-linejoin:miter;stroke-opacity:1;font-family:P22 Typewriter"
       x="230.70969"
       y="457.51819"
       id="text3276"><tspan
         sodipodi:role="line"
         id="tspan3278"
         x="230.70969"
         y="457.51819">creates UIs</tspan><tspan
         sodipodi:role="line"
         x="230.70969"
         y="463.69885"
         id="tspan3280">from html</tspan><tspan
         sodipodi:role="line"
         x="230.70969"
         y="469.87958"
         id="tspan3282">forms</tspan></text>
    <text
       xml:space="preserve"
       style="font-size:5.11026525px;font-style:normal;font-weight:normal;fill:#000000;fill-opacity:1;stroke:none;stroke-width:1px;stroke-linecap:butt;stroke-linejoin:miter;stroke-opacity:1;font-family:P22 Typewriter"
       x="180.82819"
       y="427.83017"
       id="text3284"><tspan
         sodipodi:role="line"
         id="tspan3286"
         x="180.82819"
         y="427.83017">quick entry</tspan><tspan
         sodipodi:role="line"
         x="180.82819"
         y="434.21799"
         id="tspan3288">of forms</tspan></text>
    <text
       xml:space="preserve"
       style="font-size:5.6354804px;font-style:normal;font-weight:normal;fill:#000000;fill-opacity:1;stroke:none;stroke-width:1px;stroke-linecap:butt;stroke-linejoin:miter;stroke-opacity:1;font-family:P22 Typewriter"
       x="267.42651"
       y="427.16052"
       id="text3294"><tspan
         sodipodi:role="line"
         id="tspan3296"
         x="267.42651"
         y="427.16052">submitting</tspan><tspan
         sodipodi:role="line"
         x="267.42651"
         y="434.20486"
         id="tspan3298">forms</tspan></text>
    <text
       xml:space="preserve"
       style="font-size:6.4605298px;font-style:normal;font-weight:normal;fill:#000000;fill-opacity:1;stroke:none;stroke-width:1px;stroke-linecap:butt;stroke-linejoin:miter;stroke-opacity:1;font-family:P22 Typewriter"
       x="458.30771"
       y="428.73895"
       id="text3300"><tspan
         sodipodi:role="line"
         id="tspan3302"
         x="458.30771"
         y="428.73895">gathering</tspan><tspan
         sodipodi:role="line"
         x="458.30771"
         y="436.81461"
         id="tspan3304">IM&amp;RSS</tspan></text>
    <text
       xml:space="preserve"
       style="font-size:5.72645235px;font-style:normal;font-weight:normal;fill:#000000;fill-opacity:1;stroke:none;stroke-width:1px;stroke-linecap:butt;stroke-linejoin:miter;stroke-opacity:1;font-family:P22 Typewriter"
       x="528.35742"
       y="426.19376"
       id="text3306"><tspan
         sodipodi:role="line"
         id="tspan3308"
         x="528.35742"
         y="426.19376">display </tspan><tspan
         sodipodi:role="line"
         x="528.35742"
         y="433.35181"
         id="tspan3310">messages</tspan></text>
  </g>
</svg>
